<svg version="1.1" id="Layer_1" xmlns="http://www.w3.org/2000/svg" xmlns:xlink="http://www.w3.org/1999/xlink" x="0px" y="0px"
	 width="100%" viewBox="0 0 851 850" enable-background="new 0 0 851 850" xml:space="preserve">
<path fill="transparent" opacity="1.000000" stroke="none" 
	d="
M486.000000,851.000000 
	C324.000061,851.000000 162.500092,851.000000 1.000108,851.000000 
	C1.000072,567.666809 1.000072,284.333588 1.000036,1.000298 
	C284.666443,1.000199 568.332886,1.000199 851.999512,1.000099 
	C851.999634,284.333038 851.999634,567.666077 851.999817,850.999512 
	C730.166687,851.000000 608.333313,851.000000 486.000000,851.000000 
M440.961029,581.964905 
	C440.961029,581.964905 440.960052,581.871582 440.354004,582.125854 
	C440.184235,582.749023 440.014465,583.372192 439.949188,583.985413 
	C439.949188,583.985413 439.936157,583.881226 439.193542,583.997742 
	C436.470001,587.006897 433.536346,589.856323 431.088745,593.075317 
	C429.091644,595.701904 427.718811,598.796631 425.986542,601.633362 
	C424.794037,603.586121 423.460358,605.452820 422.189789,607.357971 
	C420.907440,613.643066 420.552765,613.982361 416.481354,611.647217 
	C413.531616,615.422485 410.646912,619.114624 407.999298,622.503235 
	C407.798615,616.645508 406.291046,610.090576 407.664032,604.208008 
	C409.894958,594.649048 414.174591,585.583984 417.270905,576.205383 
	C419.112518,570.627136 420.344696,564.847656 422.007751,558.310059 
	C420.429535,553.416565 419.261139,548.341614 417.190582,543.666138 
	C412.383759,532.811890 407.046417,522.193909 402.103760,511.397919 
	C397.685791,501.748047 393.626648,491.933197 389.164032,482.304779 
	C387.489166,478.691162 385.123505,475.397736 383.023499,471.169586 
	C381.690155,467.568115 380.588715,463.859070 378.977112,460.386749 
	C375.166016,452.175476 371.112396,444.076782 367.105164,435.146271 
	C364.481323,429.402588 361.857452,423.658905 359.084412,417.142609 
	C358.064117,414.444397 357.192993,411.677979 355.996216,409.060455 
	C352.016876,400.356903 347.920563,391.706848 343.938751,382.242554 
	C342.967804,380.119293 341.996857,377.996063 341.014160,376.012695 
	C341.014160,376.012695 341.154053,376.024139 340.977051,375.376038 
	C340.657928,374.877197 340.338806,374.378326 340.007050,374.022705 
	C340.007050,374.022705 340.150269,374.035980 339.969604,373.274567 
	C338.992767,371.141052 338.015900,369.007568 337.037109,366.976196 
	C337.037109,366.976196 337.139282,366.975372 336.934265,366.480469 
	C336.635925,366.312073 336.337585,366.143677 335.830719,365.393799 
	C335.244781,365.250732 334.658875,365.107666 334.013000,364.299683 
	C333.947327,363.860535 333.881653,363.421356 333.928741,362.195038 
	C333.407776,360.334137 333.103546,358.377258 332.329224,356.628571 
	C328.499969,347.980774 324.546448,339.388031 320.149475,330.203827 
	C317.692902,324.685333 315.236328,319.166809 312.315582,312.943787 
	C312.079895,312.790375 311.844177,312.636932 311.694458,312.546112 
	C311.694458,312.546112 311.627991,312.629120 311.844849,311.834412 
	C311.423889,310.830353 311.002930,309.826294 310.119324,308.243988 
	C307.907532,302.150177 305.987946,295.930084 303.420013,289.990265 
	C298.819031,279.347961 293.774567,268.898376 289.015320,258.323273 
	C284.545197,248.390533 280.292175,238.359665 275.781494,228.445724 
	C271.287567,218.568665 266.707306,208.726913 261.936066,198.981689 
	C259.575592,194.160355 256.700562,189.590942 253.844528,184.247665 
	C249.249344,178.684036 245.226776,172.487549 239.932159,167.696945 
	C230.720963,159.362640 219.811172,154.760941 206.914780,154.893295 
	C178.371994,155.186188 149.824158,154.985550 121.278381,154.987869 
	C102.448204,154.989395 83.617943,154.961777 64.787903,155.014633 
	C58.338753,155.032730 55.480042,157.283783 56.104763,162.350342 
	C56.597954,166.350204 57.705341,170.362106 59.150372,174.134857 
	C61.002563,178.970657 63.593498,183.517609 65.640907,188.285736 
	C69.982201,198.396057 74.040176,208.629990 78.501175,218.685989 
	C80.262512,222.656403 82.788452,226.287643 85.019012,230.804688 
	C86.305893,233.224350 87.592773,235.644028 88.965942,238.845840 
	C90.192421,241.621246 91.434715,244.389771 92.642548,247.173279 
	C97.053253,257.337982 101.338585,267.559418 105.916664,277.648041 
	C107.560005,281.269440 109.898544,284.575317 112.001244,288.793304 
	C113.402107,292.180359 114.802971,295.567444 116.287949,299.675446 
	C118.497688,303.795135 120.707428,307.914856 123.046440,312.778503 
	C127.350220,321.858063 131.654007,330.937622 136.030579,340.783539 
	C137.750443,344.502930 139.470322,348.222351 141.308395,352.659515 
	C144.808517,360.112915 148.308640,367.566284 151.967941,375.761169 
	C156.196365,385.525238 160.285980,395.352417 164.689987,405.036652 
	C169.673264,415.994720 174.869278,426.858093 180.116226,437.693176 
	C182.159378,441.912292 184.593811,445.941895 186.948212,450.828766 
	C187.598770,452.658783 188.103653,454.557190 188.925522,456.306732 
	C192.195480,463.267731 195.566833,470.181030 198.895798,477.114319 
	C202.887848,485.428589 206.874954,493.745300 210.948395,502.828522 
	C211.042938,503.649872 210.937561,504.561859 211.262482,505.278809 
	C215.235474,514.045654 219.266342,522.786316 223.292786,531.528870 
	C227.285126,540.197327 231.234909,548.885986 235.305038,557.517822 
	C238.852036,565.040161 242.540787,572.495605 246.098022,580.707520 
	C248.517929,587.072632 253.665176,592.233704 254.345108,599.379578 
	C254.385422,599.803406 254.945053,600.153748 255.163086,600.588379 
	C257.425903,605.099548 259.683624,609.613464 261.911896,614.141785 
	C264.349182,619.094849 266.753937,624.063843 269.128357,629.764099 
	C271.735413,634.869385 274.342438,639.974609 277.001373,645.851379 
	C279.266083,650.755371 281.530762,655.659363 283.988403,661.242371 
	C285.902130,665.926514 287.645691,670.689087 289.763062,675.279297 
	C295.022919,686.682190 300.533569,697.969421 305.794891,709.371643 
	C312.306396,723.483276 318.568146,737.710876 325.173340,751.777771 
	C326.593811,754.802856 329.020905,757.355225 331.328247,760.731018 
	C333.578430,762.146606 334.907837,762.138245 336.459381,759.283691 
	C339.278778,754.096680 342.856903,749.320251 346.174316,744.410278 
	C346.368500,744.122864 347.060852,744.171997 347.723541,744.017334 
	C347.906921,745.368225 348.074158,746.599976 348.241364,747.831787 
	C348.612579,747.481934 348.983765,747.132141 349.354980,746.782349 
	C351.557098,748.539795 355.402130,750.089600 355.655334,752.093384 
	C356.436035,758.271179 356.245117,764.517090 353.314087,770.590149 
	C351.689178,773.956970 348.079956,777.617310 350.935699,782.893127 
	C350.262177,785.057251 349.748047,787.287842 348.878815,789.370300 
	C347.472046,792.740723 347.868378,795.111328 352.261810,796.774414 
	C375.294006,797.181946 398.325165,797.817383 421.358704,797.919434 
	C437.578552,797.991333 453.801270,797.322754 470.023407,797.020020 
	C474.013855,796.945496 478.007385,796.967041 481.998596,797.017212 
	C489.793945,797.115173 496.146851,794.169128 501.066925,788.086121 
	C501.066925,788.086121 501.106873,788.090942 501.793518,788.007019 
	C502.557709,787.041870 503.321899,786.076721 504.117188,785.091614 
	C504.117188,785.091614 504.132965,785.058228 504.755280,784.799927 
	C508.462311,778.992859 512.742310,773.465637 515.746887,767.315369 
	C520.700378,757.175842 524.661072,746.556824 529.345032,736.278870 
	C536.419373,720.755737 543.835144,705.388489 550.953552,689.885132 
	C556.006714,678.879700 560.798706,667.754578 565.725952,656.691162 
	C570.259827,646.511108 574.817078,636.341431 579.367126,626.168579 
	C582.299622,619.612305 585.105225,612.995117 588.204773,606.518555 
	C592.689087,597.148560 597.621216,587.987793 601.934265,578.542297 
	C606.903687,567.659546 611.303955,556.518372 616.135986,545.571045 
	C624.342773,526.977783 632.710083,508.455505 640.980591,489.890381 
	C649.920105,469.823456 658.870056,449.760956 667.730347,429.659027 
	C673.226807,417.188721 678.653259,404.685913 683.951721,392.130402 
	C690.365356,376.932098 696.598755,361.657806 702.932739,346.425781 
	C707.421997,335.630035 712.012695,324.876068 716.442688,314.056213 
	C722.020935,300.431732 727.503845,286.768066 732.984375,273.103851 
	C736.382385,264.631805 739.722534,256.136322 743.046936,247.635040 
	C747.359009,236.608215 751.626099,225.563812 755.918945,214.529480 
	C759.575073,205.131668 763.366638,195.784241 766.871155,186.330338 
	C771.818604,172.983673 776.534485,159.551315 781.390991,146.170715 
	C785.818176,133.973145 790.450439,121.847748 794.713257,109.593483 
	C798.340454,99.166336 801.784790,88.664040 804.899597,78.074280 
	C806.930237,71.170303 808.226562,64.050369 810.208008,56.344971 
	C812.797729,50.493538 814.670715,44.522541 814.061951,37.966442 
	C813.668335,33.727783 808.751831,29.010408 805.148499,30.093676 
	C801.469360,31.199724 797.911133,32.753258 794.379150,34.292629 
	C789.507202,36.416004 784.814270,38.985329 779.856750,40.869492 
	C771.262939,44.135742 762.450012,46.827141 753.865967,50.117039 
	C742.233398,54.575253 730.727661,59.364845 719.171631,64.022430 
	C705.159180,69.670097 691.150269,75.326378 677.141296,80.982574 
	C667.087830,85.041725 657.036743,89.106895 646.419739,93.184113 
	C646.201294,93.488724 645.982849,93.793343 645.400024,94.154083 
	C645.400024,94.154083 645.195740,94.460892 644.588440,94.858749 
	C639.934448,96.575836 635.234924,98.180046 630.636597,100.035088 
	C622.708374,103.233459 614.843140,106.587845 606.275757,110.210152 
	C603.957581,110.921074 601.544861,111.415451 599.336975,112.379059 
	C587.510254,117.540710 575.663147,122.667931 563.994934,128.171448 
	C561.312927,129.436478 559.029480,131.899704 557.062378,134.232864 
	C554.886902,136.813187 557.104126,140.272583 561.756897,142.021255 
	C570.110291,145.160751 578.457092,148.318100 586.823975,151.421310 
	C596.557251,155.031265 606.309143,158.591064 616.345215,162.781509 
	C617.239258,162.900787 618.133362,163.020050 619.011902,163.017578 
	C619.011902,163.017578 618.890198,163.033569 619.171265,163.692657 
	C624.421509,165.512573 626.877991,168.876328 624.922424,175.318420 
	C621.290955,184.319321 617.788147,193.374847 613.994934,202.307053 
	C609.426819,213.063721 604.602234,223.711395 599.909119,234.415222 
	C598.218567,238.271011 596.627930,242.170837 594.919861,246.018707 
	C591.830933,252.977341 588.739563,259.935760 585.553223,266.850037 
	C582.367554,273.762665 578.950378,280.570099 575.839722,287.515442 
	C571.335022,297.573334 567.147705,307.774506 562.571289,317.798737 
	C559.278687,325.010864 555.445374,331.975128 552.104919,339.166840 
	C550.493103,342.636993 549.461304,346.376495 547.840088,350.633911 
	C544.236633,358.208374 540.491150,365.719238 537.063171,373.372314 
	C531.997803,384.680908 527.118164,396.073517 522.242310,407.465820 
	C520.337341,411.916809 518.656921,416.463928 516.271667,421.353149 
	C513.959229,426.330933 511.586121,431.281616 509.346619,436.292023 
	C504.212463,447.778564 499.088379,459.270264 494.067017,470.806335 
	C490.579803,478.817871 487.270264,486.906708 483.240753,495.288330 
	C474.841522,513.576050 466.428009,531.857178 458.056335,550.157532 
	C456.580017,553.384766 455.278473,556.691956 453.305420,560.333801 
	C452.160889,563.208984 451.016388,566.084106 449.296326,569.353943 
	C447.845093,572.197205 446.393860,575.040527 444.377075,578.224548 
	C443.554840,579.192444 442.732605,580.160400 441.401306,581.123047 
	C441.223450,581.402893 441.045593,581.682739 440.961029,581.964905 
z"/>
<path fill="#68C840" opacity="1.000000" stroke="none" 
	d="
M606.951477,109.876755 
	C614.843140,106.587845 622.708374,103.233459 630.636597,100.035088 
	C635.234924,98.180046 639.934448,96.575836 645.299255,94.889130 
	C651.127869,95.075981 656.037964,99.784966 661.387817,95.604851 
	C661.781799,95.297043 662.718811,95.368088 663.251465,95.604736 
	C666.976746,97.259796 670.836609,98.717026 674.301086,100.818436 
	C676.767639,102.314575 679.457031,104.324493 680.706543,106.785652 
	C684.934753,115.114037 688.121155,123.800468 688.403748,133.412064 
	C688.523926,137.498795 690.075439,141.543427 690.641541,144.096558 
	C695.591553,144.982697 699.632263,145.706055 703.964355,146.481583 
	C703.101440,149.098328 702.652161,150.460892 702.169373,151.924927 
	C704.687683,153.294983 707.280151,154.187027 709.206848,155.850266 
	C715.100708,160.938263 721.545654,164.525604 729.478210,165.038971 
	C730.572693,165.109802 732.199707,165.346649 732.616943,166.065598 
	C734.640259,169.551788 737.868225,168.858902 740.978943,169.029099 
	C749.749573,169.508972 759.151123,165.889862 766.957214,172.908646 
	C767.152283,173.084076 767.603271,172.974976 767.917664,173.369202 
	C761.816345,189.216248 755.671448,204.669128 749.669617,220.177429 
	C745.679443,230.487808 742.019226,240.926544 737.981384,251.217697 
	C733.918579,261.572601 729.571411,271.815948 725.067627,281.855957 
	C722.493835,278.528442 723.038757,275.423218 724.540649,272.210388 
	C725.375732,270.423828 726.119629,268.546417 726.551147,266.630341 
	C727.266418,263.453949 727.772461,260.221649 722.519714,261.553680 
	C721.708069,261.759491 720.611450,261.314270 719.782837,260.898529 
	C716.180176,259.090942 712.765259,256.811829 709.015686,255.423798 
	C705.774902,254.224091 702.174622,253.995392 698.970520,253.382812 
	C698.357483,256.773560 697.827820,259.703217 697.162170,263.385010 
	C690.485840,258.875519 684.502991,258.975830 678.354370,263.023865 
	C678.294739,262.528351 678.235107,262.032806 678.175537,261.537292 
	C678.942871,260.196594 679.710266,258.855927 680.401794,257.647797 
	C680.161743,257.240051 680.113098,257.032990 679.987732,256.962830 
	C677.541931,255.593903 675.748230,255.669922 673.550415,258.075684 
	C671.873657,259.911102 667.828918,259.872528 666.623840,261.790161 
	C663.992737,265.976990 661.483032,265.042603 657.834534,263.685486 
	C653.162415,261.947571 649.568970,259.709290 648.719116,254.416779 
	C648.629761,253.860397 647.979797,253.358505 647.518921,252.903122 
	C644.616699,250.035431 641.769165,247.106155 638.756653,244.358276 
	C636.059509,241.898087 635.339600,239.643295 638.432861,236.917252 
	C639.139343,236.294571 639.574951,234.840759 639.437195,233.868362 
	C638.482056,227.127655 637.311768,220.417664 636.305359,213.683624 
	C636.193909,212.937836 636.564270,212.048172 636.908081,211.317932 
	C639.061279,206.744873 641.465149,202.276245 643.343018,197.595306 
	C643.909973,196.181992 643.601196,193.851562 642.750305,192.565338 
	C641.411316,190.541489 639.553650,188.398544 637.411255,187.471069 
	C633.706726,185.867325 633.441223,183.266953 632.699341,179.801025 
	C631.847473,175.820648 634.354004,170.350693 628.831421,167.572266 
	C627.208618,166.055725 625.492249,164.874771 623.818970,163.247803 
	C622.111694,158.319077 620.361389,153.836365 618.813171,149.871277 
	C619.233093,147.311951 619.843201,144.719696 620.040222,142.096405 
	C620.265442,139.098404 620.333435,135.993240 616.096497,135.441208 
	C615.714294,135.391418 615.413940,134.103745 615.216980,133.353790 
	C614.568420,130.884521 614.787354,127.545715 613.227112,126.076973 
	C608.401428,121.534279 609.170349,115.193031 606.951477,109.876755 
z"/>
<path fill="#239646" opacity="1.000000" stroke="none" 
	d="
M359.233582,417.915222 
	C361.857452,423.658905 364.481323,429.402588 366.856934,435.770508 
	C362.681000,438.407806 358.806335,440.542206 354.769745,442.306000 
	C354.148010,442.577667 352.378265,441.382812 351.833832,440.457581 
	C350.043701,437.415405 348.469818,437.936371 346.468079,440.196991 
	C345.558563,441.224152 343.610474,442.838745 343.190643,442.565094 
	C337.424530,438.806274 331.457947,442.920044 325.771881,441.896851 
	C319.882111,440.837036 314.319702,438.497162 308.033478,439.172699 
	C302.632812,439.753082 297.111115,439.190460 291.642761,439.171112 
	C290.524597,439.167145 289.406372,439.396942 288.287201,439.407074 
	C282.337738,439.460876 276.387909,439.477539 270.438293,439.518280 
	C270.287018,439.519318 270.141479,439.697449 269.985168,439.713318 
	C267.087585,440.008209 264.192108,440.332825 261.289185,440.562195 
	C259.182922,440.728638 256.900055,440.285767 254.985489,440.949646 
	C249.101730,442.989777 243.479721,445.855133 237.518555,447.578552 
	C233.028824,448.876617 227.707275,450.459259 223.570648,449.212402 
	C212.079620,445.748840 201.026566,442.236145 189.758896,449.481903 
	C188.985611,449.979187 187.828583,449.879761 186.850006,450.057831 
	C184.593811,445.941895 182.159378,441.912292 180.116226,437.693176 
	C174.869278,426.858093 169.673264,415.994720 164.689987,405.036652 
	C160.285980,395.352417 156.196365,385.525238 152.123322,375.520203 
	C154.194382,373.992157 156.092300,372.677643 158.031464,371.427032 
	C159.516205,370.469482 161.073456,368.780701 162.563187,368.818237 
	C169.623352,368.995911 169.619034,369.167206 168.821228,362.321960 
	C170.759888,361.600189 173.093399,359.803223 174.713348,360.305878 
	C179.204132,361.699371 182.659805,361.501434 187.366257,359.609619 
	C192.458023,357.562958 198.979614,358.829407 204.862167,359.054382 
	C212.656631,359.352386 219.660202,361.905121 225.376862,367.461151 
	C228.253311,370.256775 232.393646,369.347687 234.161316,365.973999 
	C234.976059,364.419006 236.648941,362.987640 238.273224,362.249634 
	C241.827042,360.634796 245.639679,359.600586 249.266098,358.130646 
	C251.598648,357.185120 253.712448,355.111328 256.054993,354.882690 
	C265.358063,353.974701 274.714050,353.617279 284.046844,353.001190 
	C286.449280,352.842590 288.833374,352.416260 291.235046,352.233093 
	C295.357880,351.918610 299.626495,351.006256 302.154083,355.912415 
	C302.618683,356.814240 305.207642,357.741913 305.687897,357.332947 
	C308.722626,354.748505 311.391174,351.740509 314.275146,348.970825 
	C317.023254,346.331635 315.718750,340.679565 321.303528,340.167786 
	C325.203522,344.175262 325.350189,348.043518 323.314819,353.002228 
	C322.101044,355.959290 323.199036,359.965424 323.816254,363.399567 
	C323.870514,363.701385 328.081757,363.258881 330.361969,363.156555 
	C331.513611,363.104889 332.664673,363.040741 333.816010,362.982208 
	C333.881653,363.421356 333.947327,363.860535 333.684021,364.704590 
	C328.584778,366.704285 328.414185,370.393127 328.398010,374.822479 
	C331.173309,374.306824 333.214325,373.927612 333.799988,373.818787 
	C337.014587,378.589661 339.708038,382.566345 342.376953,386.559418 
	C343.296326,387.934875 345.193787,389.681183 344.871735,390.695038 
	C342.817047,397.163818 347.673187,399.985107 350.847900,404.025024 
	C353.135864,406.936493 353.937683,410.975677 355.720215,414.343628 
	C356.468719,415.757843 358.037628,416.737823 359.233582,417.915222 
z"/>
<path fill="#138947" opacity="1.000000" stroke="none" 
	d="
M246.166901,579.980652 
	C242.540787,572.495605 238.852036,565.040161 235.305038,557.517822 
	C231.234909,548.885986 227.285126,540.197327 223.292786,531.528870 
	C219.266342,522.786316 215.235474,514.045654 211.262482,505.278809 
	C210.937561,504.561859 211.042938,503.649872 211.222687,502.295288 
	C213.745544,499.611420 216.162552,497.608582 218.207001,495.278809 
	C222.250885,490.670685 225.605560,489.814362 231.380707,491.853149 
	C233.126831,492.469574 235.174927,492.399811 237.079605,492.364990 
	C242.136414,492.272614 247.223648,491.604523 252.233414,491.997925 
	C255.375198,492.244659 257.857727,492.401215 260.504883,490.205414 
	C264.566162,486.836548 275.139740,485.800598 278.183350,489.629456 
	C284.064636,497.028168 293.308685,491.746765 299.497437,496.656494 
	C299.854004,496.939362 301.039520,496.303375 301.776428,495.960083 
	C306.142029,493.926147 310.303711,491.098450 314.886566,489.971161 
	C321.515961,488.340515 328.432404,487.803772 335.256287,487.084076 
	C337.144562,486.884949 339.136505,487.706085 341.085052,488.034393 
	C346.780304,488.993896 352.688416,491.385284 358.130188,490.591248 
	C369.367279,488.951538 378.387451,483.022461 383.072784,471.958313 
	C385.123505,475.397736 387.489166,478.691162 389.164032,482.304779 
	C393.626648,491.933197 397.685791,501.748047 402.103760,511.397919 
	C407.046417,522.193909 412.383759,532.811890 417.190582,543.666138 
	C419.261139,548.341614 420.429535,553.416565 421.662964,558.933838 
	C419.048187,564.431030 416.778168,569.304504 414.134796,574.100464 
	C412.529297,573.210266 411.223389,572.489380 410.077576,571.569153 
	C404.640594,567.202698 401.715118,567.309204 397.621460,572.658813 
	C396.523468,574.093628 396.368011,576.317688 395.991608,578.221375 
	C395.356659,581.432678 393.751801,582.380920 390.650482,581.114380 
	C388.463806,580.221375 386.138702,579.667358 384.180054,579.056946 
	C383.392822,575.954956 382.847198,572.739807 381.735199,569.734192 
	C380.701233,566.939636 372.044800,564.793701 370.850311,567.132996 
	C368.943512,570.867493 365.270233,571.856506 362.625793,574.303711 
	C357.786591,578.781921 347.951447,577.104736 346.392548,570.790527 
	C345.060364,565.394653 342.068146,564.830811 337.634033,565.582642 
	C334.076721,566.185852 330.483368,567.263733 331.294403,560.989624 
	C331.519958,559.244751 328.549103,557.086670 327.044678,555.118103 
	C325.938293,556.609375 324.818878,558.091248 323.732574,559.596985 
	C323.347595,560.130493 323.145386,560.828430 322.685913,561.270691 
	C317.848175,565.926636 313.057861,570.639648 308.026459,575.078430 
	C307.236053,575.775757 305.212372,575.507568 303.924469,575.126404 
	C300.242279,574.036743 296.645355,572.659058 292.735016,571.297180 
	C292.568024,566.927124 291.383820,565.591919 286.527344,567.012268 
	C281.654694,568.437378 277.206879,567.820374 272.681122,566.278442 
	C267.890259,564.646301 263.245026,564.662659 258.721924,567.115051 
	C259.947815,575.089844 250.258896,571.002930 248.829880,576.060913 
	C248.604446,576.858887 248.379379,577.705933 247.926453,578.376526 
	C247.494736,579.015808 246.765411,579.454041 246.166901,579.980652 
z"/>
<path fill="#46B041" opacity="1.000000" stroke="none" 
	d="
M84.966232,230.073318 
	C82.788452,226.287643 80.262512,222.656403 78.501175,218.685989 
	C74.040176,208.629990 69.982201,198.396057 65.640907,188.285736 
	C63.593498,183.517609 61.002563,178.970657 59.150372,174.134857 
	C57.705341,170.362106 56.597954,166.350204 56.104763,162.350342 
	C55.480042,157.283783 58.338753,155.032730 64.787903,155.014633 
	C83.617943,154.961777 102.448204,154.989395 121.278381,154.987869 
	C149.824158,154.985550 178.371994,155.186188 206.914780,154.893295 
	C219.811172,154.760941 230.720963,159.362640 239.932159,167.696945 
	C245.226776,172.487549 249.249344,178.684036 253.925354,184.956726 
	C257.309937,192.989426 260.643921,200.299637 263.907623,207.641083 
	C266.389313,213.223495 268.781738,218.845612 271.045258,224.789795 
	C268.920441,226.419876 266.964264,227.710236 265.012878,228.623688 
	C265.948792,225.841187 266.879944,223.435593 268.147705,220.160492 
	C266.457764,220.799988 266.094666,220.841721 265.876434,221.041595 
	C265.516235,221.371399 265.129913,221.757645 264.961334,222.199051 
	C262.063873,229.787125 256.378693,232.063507 248.714783,231.103210 
	C247.069412,230.897034 245.284622,231.861923 243.555786,232.250626 
	C240.458817,232.946930 237.315247,234.317673 234.263672,234.142563 
	C228.686050,233.822495 223.152023,230.777039 217.644516,234.578262 
	C216.723679,235.213791 215.436310,235.293152 214.362793,235.737106 
	C210.640656,237.276398 207.368195,237.406723 204.617188,233.694458 
	C203.888992,232.711823 202.092896,232.336182 200.711426,232.058548 
	C197.319000,231.376770 193.897659,230.761261 190.458084,230.420715 
	C188.372452,230.214203 186.221405,230.474045 184.116623,230.689362 
	C175.556610,231.565063 166.789001,234.053101 158.517807,232.909592 
	C152.372070,232.059952 146.820480,232.737198 141.159988,233.630737 
	C130.079849,235.379837 119.040901,238.245972 109.714386,228.028610 
	C104.894577,230.798141 100.166054,233.580566 95.360085,236.222092 
	C94.390968,236.754745 93.128304,236.753326 92.150215,236.689270 
	C95.244095,232.701889 98.273087,229.086380 101.091240,225.313400 
	C102.195068,223.835571 102.826057,222.004578 103.672409,220.334442 
	C99.137421,219.183350 94.606796,218.013382 90.049431,216.958969 
	C89.888458,216.921722 89.455742,218.028076 89.160622,218.607025 
	C87.960686,220.960999 86.765015,223.317139 85.567764,225.672485 
	C85.157799,225.518341 84.747826,225.364212 84.337852,225.210083 
	C84.547318,226.831161 84.756775,228.452240 84.966232,230.073318 
z"/>
<path fill="#63C541" opacity="1.000000" stroke="none" 
	d="
M628.737854,167.907867 
	C634.354004,170.350693 631.847473,175.820648 632.699341,179.801025 
	C633.441223,183.266953 633.706726,185.867325 637.411255,187.471069 
	C639.553650,188.398544 641.411316,190.541489 642.750305,192.565338 
	C643.601196,193.851562 643.909973,196.181992 643.343018,197.595306 
	C641.465149,202.276245 639.061279,206.744873 636.908081,211.317932 
	C636.564270,212.048172 636.193909,212.937836 636.305359,213.683624 
	C637.311768,220.417664 638.482056,227.127655 639.437195,233.868362 
	C639.574951,234.840759 639.139343,236.294571 638.432861,236.917252 
	C635.339600,239.643295 636.059509,241.898087 638.756653,244.358276 
	C641.769165,247.106155 644.616699,250.035431 647.518921,252.903122 
	C647.979797,253.358505 648.629761,253.860397 648.719116,254.416779 
	C649.568970,259.709290 653.162415,261.947571 657.834534,263.685486 
	C661.483032,265.042603 663.992737,265.976990 666.623840,261.790161 
	C667.828918,259.872528 671.873657,259.911102 673.550415,258.075684 
	C675.748230,255.669922 677.541931,255.593903 679.987732,256.962830 
	C680.113098,257.032990 680.161743,257.240051 680.401794,257.647797 
	C679.710266,258.855927 678.942871,260.196594 678.175537,261.537292 
	C678.235107,262.032806 678.294739,262.528351 678.354370,263.023865 
	C684.502991,258.975830 690.485840,258.875519 697.162170,263.385010 
	C697.827820,259.703217 698.357483,256.773560 698.970520,253.382812 
	C702.174622,253.995392 705.774902,254.224091 709.015686,255.423798 
	C712.765259,256.811829 716.180176,259.090942 719.782837,260.898529 
	C720.611450,261.314270 721.708069,261.759491 722.519714,261.553680 
	C727.772461,260.221649 727.266418,263.453949 726.551147,266.630341 
	C726.119629,268.546417 725.375732,270.423828 724.540649,272.210388 
	C723.038757,275.423218 722.493835,278.528442 725.035278,282.176971 
	C724.886475,283.500854 724.488708,284.251465 723.698242,285.005981 
	C716.594177,286.348816 715.245667,290.362732 719.218872,297.410950 
	C718.803406,298.489227 718.416260,299.246490 717.675049,300.141144 
	C716.966003,301.428162 716.611084,302.577850 716.277954,304.027405 
	C715.872925,305.219940 715.446106,306.112579 714.672363,307.079681 
	C713.617249,309.458954 712.909058,311.763763 712.178833,314.390656 
	C711.777588,315.477203 711.398376,316.241669 710.757385,317.066162 
	C710.388977,317.770996 710.282288,318.415802 710.135254,319.421082 
	C708.730408,322.855591 707.365967,325.929626 705.742920,329.062805 
	C705.362549,329.760468 705.240784,330.398926 705.082825,331.397461 
	C703.434082,335.351959 701.821472,338.946381 699.991577,342.233643 
	C694.805359,339.706543 689.731995,337.689453 684.902954,335.198547 
	C681.426941,333.405609 680.072021,334.802429 679.040833,337.875641 
	C678.565063,339.293396 677.716309,340.585968 677.036682,341.935303 
	C676.610046,341.805908 676.183411,341.676483 675.756836,341.547089 
	C675.019348,338.584351 674.281921,335.621582 673.502258,332.489166 
	C666.724731,334.011017 660.141663,337.714111 653.944336,331.081970 
	C651.124573,332.690735 648.417053,334.605804 645.420654,335.790253 
	C643.902588,336.390289 641.469299,336.281219 640.139893,335.423340 
	C637.225708,333.542664 635.350037,333.830078 633.494385,336.691101 
	C632.603271,338.065125 631.474182,339.574951 630.077698,340.276855 
	C625.801453,342.425964 621.343506,344.213593 615.967529,346.576355 
	C616.669556,343.061371 617.022827,341.292755 617.376038,339.524139 
	C617.147522,339.169891 616.918945,338.815643 616.690369,338.461395 
	C612.945679,342.587921 609.139648,341.960785 604.789062,340.253448 
	C602.474792,339.345245 599.415283,340.500336 596.710266,340.364136 
	C595.015198,340.278778 593.283142,339.696014 591.690552,339.038727 
	C586.575012,336.927368 581.543152,334.611420 576.406616,332.555145 
	C575.668518,332.259644 574.490234,332.854126 573.589294,333.218628 
	C571.743652,333.965271 569.818481,335.727814 568.156189,335.486542 
	C563.281921,334.779022 562.669434,338.216614 560.962097,341.255127 
	C558.217590,346.139557 555.260498,351.248596 548.166870,349.994019 
	C549.461304,346.376495 550.493103,342.636993 552.104919,339.166840 
	C555.445374,331.975128 559.278687,325.010864 562.571289,317.798737 
	C567.147705,307.774506 571.335022,297.573334 575.839722,287.515442 
	C578.950378,280.570099 582.367554,273.762665 585.553223,266.850037 
	C588.739563,259.935760 591.830933,252.977341 594.919861,246.018707 
	C596.627930,242.170837 598.218567,238.271011 599.909119,234.415222 
	C604.602234,223.711395 609.426819,213.063721 613.994934,202.307053 
	C617.788147,193.374847 621.290955,184.319321 625.271851,174.722168 
	C626.660156,172.053223 627.698975,169.980545 628.737854,167.907867 
z"/>
<path fill="#33A244" opacity="1.000000" stroke="none" 
	d="
M321.013580,339.973419 
	C315.718750,340.679565 317.023254,346.331635 314.275146,348.970825 
	C311.391174,351.740509 308.722626,354.748505 305.687897,357.332947 
	C305.207642,357.741913 302.618683,356.814240 302.154083,355.912415 
	C299.626495,351.006256 295.357880,351.918610 291.235046,352.233093 
	C288.833374,352.416260 286.449280,352.842590 284.046844,353.001190 
	C274.714050,353.617279 265.358063,353.974701 256.054993,354.882690 
	C253.712448,355.111328 251.598648,357.185120 249.266098,358.130646 
	C245.639679,359.600586 241.827042,360.634796 238.273224,362.249634 
	C236.648941,362.987640 234.976059,364.419006 234.161316,365.973999 
	C232.393646,369.347687 228.253311,370.256775 225.376862,367.461151 
	C219.660202,361.905121 212.656631,359.352386 204.862167,359.054382 
	C198.979614,358.829407 192.458023,357.562958 187.366257,359.609619 
	C182.659805,361.501434 179.204132,361.699371 174.713348,360.305878 
	C173.093399,359.803223 170.759888,361.600189 168.821228,362.321960 
	C169.619034,369.167206 169.623352,368.995911 162.563187,368.818237 
	C161.073456,368.780701 159.516205,370.469482 158.031464,371.427032 
	C156.092300,372.677643 154.194382,373.992157 152.043747,375.149445 
	C148.308640,367.566284 144.808517,360.112915 141.421631,352.041077 
	C140.878052,346.586853 145.223267,344.582916 147.241440,341.256042 
	C148.038116,339.942719 148.470551,338.408386 149.068848,336.974701 
	C147.236984,336.999695 145.315430,336.680817 143.594147,337.129791 
	C140.975784,337.812775 138.496262,339.027985 135.957779,340.017181 
	C131.654007,330.937622 127.350220,321.858063 123.242287,312.169586 
	C124.445175,309.680145 125.631653,307.871399 126.418930,305.902985 
	C127.735146,302.612091 126.945435,299.784363 123.985359,297.660217 
	C120.944939,295.478455 118.452850,296.451111 116.203835,298.954498 
	C114.802971,295.567444 113.402107,292.180359 112.363197,288.382141 
	C114.183105,287.640564 115.645050,287.326660 117.098343,286.976837 
	C124.008789,285.313354 124.736862,285.754364 127.217812,292.474121 
	C127.575684,293.443451 128.670105,294.140778 128.926712,294.421082 
	C131.275726,292.004272 132.941925,288.759521 134.933151,288.545990 
	C139.721024,288.032654 144.868896,288.205292 149.474472,289.506500 
	C153.176453,290.552460 155.854904,290.984161 159.159180,288.623352 
	C160.648987,287.558929 163.809921,287.301697 165.375229,288.176575 
	C169.274384,290.355865 172.841156,289.985107 176.885880,288.986786 
	C181.019958,287.966431 185.369537,287.192505 189.589844,287.336243 
	C193.304840,287.462708 197.020874,290.578156 200.158752,285.630127 
	C200.703415,284.771271 204.181152,285.448822 206.176498,285.937714 
	C207.727829,286.317749 209.124603,287.441162 210.513794,288.350708 
	C216.015503,291.952881 221.121353,287.314270 226.485764,287.558411 
	C228.131241,287.633270 229.797287,286.304810 231.517792,285.874329 
	C235.492188,284.879913 239.479034,283.592133 243.336548,286.585999 
	C243.746368,286.904083 245.446487,285.356140 246.636383,284.908966 
	C251.045074,283.252136 255.417389,280.635437 259.938110,280.321838 
	C268.960815,279.696014 277.933990,283.776123 287.132111,281.198486 
	C287.693298,281.041168 288.406860,281.479767 289.058624,281.584412 
	C291.972839,282.052490 294.890320,282.499969 298.003448,283.198730 
	C301.027924,289.580688 303.803680,295.743561 306.709167,301.844666 
	C307.850647,304.241699 309.282379,306.500488 310.581940,308.822205 
	C311.002930,309.826294 311.423889,310.830353 311.687500,312.242188 
	C311.530151,312.649933 311.608490,312.483521 311.608490,312.483521 
	C311.844177,312.636932 312.079895,312.790375 312.308533,313.538910 
	C314.294434,318.726959 316.287384,323.319855 318.098877,328.163086 
	C318.949432,332.266724 319.981506,336.120056 321.013580,339.973419 
z"/>
<path fill="#6FCB3E" opacity="1.000000" stroke="none" 
	d="
M767.934875,172.998581 
	C767.603271,172.974976 767.152283,173.084076 766.957214,172.908646 
	C759.151123,165.889862 749.749573,169.508972 740.978943,169.029099 
	C737.868225,168.858902 734.640259,169.551788 732.616943,166.065598 
	C732.199707,165.346649 730.572693,165.109802 729.478210,165.038971 
	C721.545654,164.525604 715.100708,160.938263 709.206848,155.850266 
	C707.280151,154.187027 704.687683,153.294983 702.169373,151.924927 
	C702.652161,150.460892 703.101440,149.098328 703.964355,146.481583 
	C699.632263,145.706055 695.591553,144.982697 690.641541,144.096558 
	C690.075439,141.543427 688.523926,137.498795 688.403748,133.412064 
	C688.121155,123.800468 684.934753,115.114037 680.706543,106.785652 
	C679.457031,104.324493 676.767639,102.314575 674.301086,100.818436 
	C670.836609,98.717026 666.976746,97.259796 663.251465,95.604736 
	C662.718811,95.368088 661.781799,95.297043 661.387817,95.604851 
	C656.037964,99.784966 651.127869,95.075981 645.602905,94.690201 
	C645.195740,94.460892 645.400024,94.154083 645.809570,93.999268 
	C646.474304,93.619423 646.729492,93.394394 646.984619,93.169365 
	C657.036743,89.106895 667.087830,85.041725 677.141296,80.982574 
	C691.150269,75.326378 705.159180,69.670097 719.171631,64.022430 
	C730.727661,59.364845 742.233398,54.575253 753.865967,50.117039 
	C762.450012,46.827141 771.262939,44.135742 779.856750,40.869492 
	C784.814270,38.985329 789.507202,36.416004 794.379150,34.292629 
	C797.911133,32.753258 801.469360,31.199724 805.148499,30.093676 
	C808.751831,29.010408 813.668335,33.727783 814.061951,37.966442 
	C814.670715,44.522541 812.797729,50.493538 809.711914,56.843956 
	C804.440552,71.220444 799.814026,85.151321 794.857422,98.963745 
	C785.988159,123.679657 776.919922,148.324188 767.934875,172.998581 
z"/>
<path fill="#43B047" opacity="1.000000" stroke="none" 
	d="
M453.896179,559.962219 
	C455.278473,556.691956 456.580017,553.384766 458.056335,550.157532 
	C466.428009,531.857178 474.841522,513.576050 483.993774,495.133514 
	C486.860138,494.711029 489.247040,494.986267 491.039978,494.082794 
	C499.299744,489.920532 507.666199,490.250885 516.274902,492.568665 
	C518.070435,493.052124 520.098511,493.020966 521.971191,492.806244 
	C528.969666,492.003754 534.853760,486.571014 542.442810,487.976929 
	C547.437561,488.902191 551.947266,490.024200 557.515076,487.498840 
	C562.730591,485.133270 569.578308,486.106812 575.707397,486.111359 
	C579.426331,486.114105 583.179016,486.900604 586.849487,487.659332 
	C588.853088,488.073517 590.979248,488.815369 592.585938,490.025665 
	C595.396667,492.143066 597.998840,493.743103 601.636414,492.005737 
	C602.715210,491.490509 604.156799,491.606628 605.426514,491.640991 
	C612.271851,491.826050 619.274353,491.749237 625.030884,487.756165 
	C629.996155,484.311920 633.526672,485.238159 637.000610,489.605225 
	C636.035095,491.503052 635.050842,493.013977 634.340210,494.644165 
	C624.130432,518.065552 613.957397,541.502930 603.335693,564.948242 
	C601.335632,564.526733 599.798889,563.950806 598.210388,563.690308 
	C595.056824,563.173096 591.708557,562.002563 588.741455,562.598694 
	C583.663818,563.618774 578.866943,565.965393 573.847168,567.383240 
	C572.064697,567.886841 569.970215,567.375427 568.028564,567.207520 
	C563.811401,566.842834 559.586609,566.510620 555.391235,565.963257 
	C549.975891,565.256592 544.219421,568.666382 539.010803,564.434387 
	C538.233398,563.802795 536.193726,564.717957 534.739380,564.927246 
	C527.400879,565.983276 519.710266,565.122803 512.873108,568.955261 
	C512.491028,569.169434 511.888855,568.972473 511.391174,569.001892 
	C506.761841,569.275513 501.944946,565.277405 497.419250,569.648438 
	C497.076660,569.979248 495.603790,569.163635 494.666321,568.850952 
	C488.821259,566.901062 486.914703,568.053223 486.735443,574.248108 
	C483.960175,572.710754 481.325317,571.443176 478.894165,569.862427 
	C474.539917,567.031128 470.238007,565.128540 464.936249,567.630737 
	C463.790588,568.171448 461.496643,567.548767 460.393890,566.649719 
	C458.001099,564.698853 456.036102,562.223267 453.896179,559.962219 
z"/>
<path fill="#5ABE42" opacity="1.000000" stroke="none" 
	d="
M548.003418,350.313965 
	C555.260498,351.248596 558.217590,346.139557 560.962097,341.255127 
	C562.669434,338.216614 563.281921,334.779022 568.156189,335.486542 
	C569.818481,335.727814 571.743652,333.965271 573.589294,333.218628 
	C574.490234,332.854126 575.668518,332.259644 576.406616,332.555145 
	C581.543152,334.611420 586.575012,336.927368 591.690552,339.038727 
	C593.283142,339.696014 595.015198,340.278778 596.710266,340.364136 
	C599.415283,340.500336 602.474792,339.345245 604.789062,340.253448 
	C609.139648,341.960785 612.945679,342.587921 616.690369,338.461395 
	C616.918945,338.815643 617.147522,339.169891 617.376038,339.524139 
	C617.022827,341.292755 616.669556,343.061371 615.967529,346.576355 
	C621.343506,344.213593 625.801453,342.425964 630.077698,340.276855 
	C631.474182,339.574951 632.603271,338.065125 633.494385,336.691101 
	C635.350037,333.830078 637.225708,333.542664 640.139893,335.423340 
	C641.469299,336.281219 643.902588,336.390289 645.420654,335.790253 
	C648.417053,334.605804 651.124573,332.690735 653.944336,331.081970 
	C660.141663,337.714111 666.724731,334.011017 673.502258,332.489166 
	C674.281921,335.621582 675.019348,338.584351 675.756836,341.547089 
	C676.183411,341.676483 676.610046,341.805908 677.036682,341.935303 
	C677.716309,340.585968 678.565063,339.293396 679.040833,337.875641 
	C680.072021,334.802429 681.426941,333.405609 684.902954,335.198547 
	C689.731995,337.689453 694.805359,339.706543 699.773621,342.499146 
	C697.260742,349.024475 694.742981,354.974792 692.237183,360.930145 
	C683.364502,382.017029 674.496033,403.105652 665.233032,424.069244 
	C664.217163,422.535309 663.621765,421.112732 662.962830,419.720215 
	C662.423157,418.579742 661.974121,416.649933 661.197998,416.493469 
	C657.269836,415.701752 653.247742,414.986053 649.258972,414.987823 
	C644.695129,414.989838 640.136658,416.072418 635.566833,416.148956 
	C628.722595,416.263611 621.858459,415.590271 615.025330,415.848816 
	C608.593384,416.092224 602.197815,417.201355 595.768066,417.690643 
	C594.731323,417.769531 593.470825,416.757233 592.535889,415.981598 
	C589.585938,413.533997 586.832642,410.808838 582.500732,413.246582 
	C581.828735,413.624725 580.383972,413.517853 579.801880,413.031067 
	C573.523743,407.780853 565.784912,411.925049 558.935120,409.711609 
	C555.123901,408.480042 550.656921,409.238312 546.484375,409.191010 
	C545.358765,409.178253 544.183777,409.354462 543.110474,409.693695 
	C540.138000,410.633209 537.107239,411.486450 534.285461,412.779572 
	C530.888000,414.336578 527.741028,416.433044 524.373474,418.064667 
	C521.969360,419.229553 519.380554,420.013397 516.874146,420.967255 
	C518.656921,416.463928 520.337341,411.916809 522.242310,407.465820 
	C527.118164,396.073517 531.997803,384.680908 537.063171,373.372314 
	C540.491150,365.719238 544.236633,358.208374 548.003418,350.313965 
z"/>
<path fill="#4FB744" opacity="1.000000" stroke="none" 
	d="
M516.572876,421.160217 
	C519.380554,420.013397 521.969360,419.229553 524.373474,418.064667 
	C527.741028,416.433044 530.888000,414.336578 534.285461,412.779572 
	C537.107239,411.486450 540.138000,410.633209 543.110474,409.693695 
	C544.183777,409.354462 545.358765,409.178253 546.484375,409.191010 
	C550.656921,409.238312 555.123901,408.480042 558.935120,409.711609 
	C565.784912,411.925049 573.523743,407.780853 579.801880,413.031067 
	C580.383972,413.517853 581.828735,413.624725 582.500732,413.246582 
	C586.832642,410.808838 589.585938,413.533997 592.535889,415.981598 
	C593.470825,416.757233 594.731323,417.769531 595.768066,417.690643 
	C602.197815,417.201355 608.593384,416.092224 615.025330,415.848816 
	C621.858459,415.590271 628.722595,416.263611 635.566833,416.148956 
	C640.136658,416.072418 644.695129,414.989838 649.258972,414.987823 
	C653.247742,414.986053 657.269836,415.701752 661.197998,416.493469 
	C661.974121,416.649933 662.423157,418.579742 662.962830,419.720215 
	C663.621765,421.112732 664.217163,422.535309 665.133179,424.433655 
	C662.567139,431.660339 659.793518,438.436157 656.831177,445.128479 
	C650.307678,459.865967 643.688965,474.561279 637.109070,489.273804 
	C633.526672,485.238159 629.996155,484.311920 625.030884,487.756165 
	C619.274353,491.749237 612.271851,491.826050 605.426514,491.640991 
	C604.156799,491.606628 602.715210,491.490509 601.636414,492.005737 
	C597.998840,493.743103 595.396667,492.143066 592.585938,490.025665 
	C590.979248,488.815369 588.853088,488.073517 586.849487,487.659332 
	C583.179016,486.900604 579.426331,486.114105 575.707397,486.111359 
	C569.578308,486.106812 562.730591,485.133270 557.515076,487.498840 
	C551.947266,490.024200 547.437561,488.902191 542.442810,487.976929 
	C534.853760,486.571014 528.969666,492.003754 521.971191,492.806244 
	C520.098511,493.020966 518.070435,493.052124 516.274902,492.568665 
	C507.666199,490.250885 499.299744,489.920532 491.039978,494.082794 
	C489.247040,494.986267 486.860138,494.711029 484.314087,494.969849 
	C487.270264,486.906708 490.579803,478.817871 494.067017,470.806335 
	C499.088379,459.270264 504.212463,447.778564 509.346619,436.292023 
	C511.586121,431.281616 513.959229,426.330933 516.572876,421.160217 
z"/>
<path fill="#37A94A" opacity="1.000000" stroke="none" 
	d="
M453.600830,560.148010 
	C456.036102,562.223267 458.001099,564.698853 460.393890,566.649719 
	C461.496643,567.548767 463.790588,568.171448 464.936249,567.630737 
	C470.238007,565.128540 474.539917,567.031128 478.894165,569.862427 
	C481.325317,571.443176 483.960175,572.710754 486.735443,574.248108 
	C486.914703,568.053223 488.821259,566.901062 494.666321,568.850952 
	C495.603790,569.163635 497.076660,569.979248 497.419250,569.648438 
	C501.944946,565.277405 506.761841,569.275513 511.391174,569.001892 
	C511.888855,568.972473 512.491028,569.169434 512.873108,568.955261 
	C519.710266,565.122803 527.400879,565.983276 534.739380,564.927246 
	C536.193726,564.717957 538.233398,563.802795 539.010803,564.434387 
	C544.219421,568.666382 549.975891,565.256592 555.391235,565.963257 
	C559.586609,566.510620 563.811401,566.842834 568.028564,567.207520 
	C569.970215,567.375427 572.064697,567.886841 573.847168,567.383240 
	C578.866943,565.965393 583.663818,563.618774 588.741455,562.598694 
	C591.708557,562.002563 595.056824,563.173096 598.210388,563.690308 
	C599.798889,563.950806 601.335632,564.526733 603.274658,565.342712 
	C595.011658,584.871277 586.369873,604.017090 577.242981,623.121704 
	C570.963806,623.641541 564.685974,622.598694 560.443665,628.223816 
	C559.894470,628.952026 558.820435,629.452026 557.893799,629.699768 
	C553.161804,630.964783 548.421448,632.220398 543.633667,633.243164 
	C541.923340,633.608521 540.064453,633.210938 538.285400,633.334717 
	C532.582336,633.731567 526.870911,634.080627 521.189758,634.697021 
	C516.719543,635.182068 512.484985,638.172485 507.711853,635.559570 
	C506.808258,635.064941 505.200287,635.795349 503.932770,636.040466 
	C501.500885,636.510803 499.082581,637.449524 496.654205,637.464294 
	C489.752411,637.506226 482.848450,637.178101 475.945190,637.000977 
	C471.156830,636.878235 466.367493,636.788330 461.579956,636.639343 
	C457.510162,636.512695 453.052948,637.334412 449.454590,635.949890 
	C441.933044,633.055847 434.923370,628.747681 426.345428,630.643799 
	C426.154785,630.685852 425.859161,630.253052 426.581299,630.871704 
	C425.383942,627.835327 424.615784,625.887390 423.840485,623.552124 
	C427.749542,614.145630 431.745422,605.159912 435.545227,596.092041 
	C437.214722,592.107971 438.484711,587.956604 439.936157,583.881226 
	C439.936157,583.881226 439.949188,583.985413 440.293823,584.021606 
	C440.745636,583.329102 440.852875,582.600342 440.960083,581.871582 
	C440.960052,581.871582 440.961029,581.964905 441.195892,582.070435 
	C441.590637,581.826721 441.750488,581.477539 441.910339,581.128296 
	C442.732605,580.160400 443.554840,579.192444 444.839600,578.340271 
	C446.414368,578.697754 448.192932,579.498108 448.532959,579.092529 
	C451.151672,575.968689 453.491486,572.611023 456.496735,568.542053 
	C453.384674,568.738037 451.628265,568.848694 449.871887,568.959351 
	C451.016388,566.084106 452.160889,563.208984 453.600830,560.148010 
z"/>
<path fill="#1B9D52" opacity="1.000000" stroke="none" 
	d="
M351.838623,795.983154 
	C347.868378,795.111328 347.472046,792.740723 348.878815,789.370300 
	C349.748047,787.287842 350.262177,785.057251 351.318665,782.312988 
	C355.706909,772.835632 359.680176,763.923767 363.726837,755.045349 
	C367.573792,746.604980 371.497528,738.199585 375.801849,729.878723 
	C380.206635,730.433533 384.187439,731.122437 388.189850,731.288208 
	C394.125549,731.534119 400.091339,731.157898 406.017334,731.506165 
	C413.336548,731.936279 420.646790,733.530884 427.926117,733.334106 
	C434.819458,733.147827 441.658142,731.227966 448.546448,730.251221 
	C449.561188,730.107361 450.719940,730.954773 451.807739,731.355225 
	C455.832886,732.836792 459.567413,733.064392 463.771576,731.065674 
	C467.378113,729.351135 471.637451,728.584473 475.673431,728.288025 
	C483.816498,727.689941 492.110962,728.422852 500.141754,727.240173 
	C507.555237,726.148438 514.821899,723.594482 521.926514,721.051208 
	C525.967529,719.604675 529.564026,719.306213 533.312683,721.490967 
	C523.362000,742.483032 513.466187,763.112732 503.618256,783.765137 
	C503.482605,784.049683 503.948090,784.620850 504.132965,785.058228 
	C504.132965,785.058228 504.117188,785.091614 503.852722,784.704468 
	C502.761108,785.575256 501.933990,786.833069 501.106873,788.090942 
	C501.106873,788.090942 501.066925,788.086121 500.907196,787.705444 
	C491.722870,794.846741 481.149170,796.049438 469.816650,795.890808 
	C442.655884,795.510498 415.486206,795.742188 388.320190,795.772583 
	C376.159607,795.786194 363.999146,795.909546 351.838623,795.983154 
z"/>
<path fill="#39A643" opacity="1.000000" stroke="none" 
	d="
M297.806641,282.954895 
	C294.890320,282.499969 291.972839,282.052490 289.058624,281.584412 
	C288.406860,281.479767 287.693298,281.041168 287.132111,281.198486 
	C277.933990,283.776123 268.960815,279.696014 259.938110,280.321838 
	C255.417389,280.635437 251.045074,283.252136 246.636383,284.908966 
	C245.446487,285.356140 243.746368,286.904083 243.336548,286.585999 
	C239.479034,283.592133 235.492188,284.879913 231.517792,285.874329 
	C229.797287,286.304810 228.131241,287.633270 226.485764,287.558411 
	C221.121353,287.314270 216.015503,291.952881 210.513794,288.350708 
	C209.124603,287.441162 207.727829,286.317749 206.176498,285.937714 
	C204.181152,285.448822 200.703415,284.771271 200.158752,285.630127 
	C197.020874,290.578156 193.304840,287.462708 189.589844,287.336243 
	C185.369537,287.192505 181.019958,287.966431 176.885880,288.986786 
	C172.841156,289.985107 169.274384,290.355865 165.375229,288.176575 
	C163.809921,287.301697 160.648987,287.558929 159.159180,288.623352 
	C155.854904,290.984161 153.176453,290.552460 149.474472,289.506500 
	C144.868896,288.205292 139.721024,288.032654 134.933151,288.545990 
	C132.941925,288.759521 131.275726,292.004272 128.926712,294.421082 
	C128.670105,294.140778 127.575684,293.443451 127.217812,292.474121 
	C124.736862,285.754364 124.008789,285.313354 117.098343,286.976837 
	C115.645050,287.326660 114.183105,287.640564 112.322479,287.998108 
	C109.898544,284.575317 107.560005,281.269440 105.916664,277.648041 
	C101.338585,267.559418 97.053253,257.337982 92.642548,247.173279 
	C91.434715,244.389771 90.192421,241.621246 89.225136,238.317902 
	C90.323212,237.526016 91.162102,237.262085 92.000984,236.998169 
	C93.128304,236.753326 94.390968,236.754745 95.360085,236.222092 
	C100.166054,233.580566 104.894577,230.798141 109.714386,228.028610 
	C119.040901,238.245972 130.079849,235.379837 141.159988,233.630737 
	C146.820480,232.737198 152.372070,232.059952 158.517807,232.909592 
	C166.789001,234.053101 175.556610,231.565063 184.116623,230.689362 
	C186.221405,230.474045 188.372452,230.214203 190.458084,230.420715 
	C193.897659,230.761261 197.319000,231.376770 200.711426,232.058548 
	C202.092896,232.336182 203.888992,232.711823 204.617188,233.694458 
	C207.368195,237.406723 210.640656,237.276398 214.362793,235.737106 
	C215.436310,235.293152 216.723679,235.213791 217.644516,234.578262 
	C223.152023,230.777039 228.686050,233.822495 234.263672,234.142563 
	C237.315247,234.317673 240.458817,232.946930 243.555786,232.250626 
	C245.284622,231.861923 247.069412,230.897034 248.714783,231.103210 
	C256.378693,232.063507 262.063873,229.787125 264.961334,222.199051 
	C265.129913,221.757645 265.516235,221.371399 265.876434,221.041595 
	C266.094666,220.841721 266.457764,220.799988 268.147705,220.160492 
	C266.879944,223.435593 265.948792,225.841187 264.840149,228.911011 
	C263.680939,230.697357 262.456482,231.693436 261.789032,232.978745 
	C261.180725,234.150238 261.176514,235.635468 260.906036,236.982407 
	C262.123199,236.894348 263.418182,237.039948 264.540161,236.666138 
	C266.459900,236.026581 268.271301,235.061813 270.128174,234.233627 
	C270.529236,234.720779 270.930267,235.207916 271.331299,235.695053 
	C269.752808,237.517715 268.431549,240.545959 266.549866,240.947449 
	C259.621979,242.425507 258.458282,248.376755 255.280823,253.311005 
	C260.243896,253.311005 264.712585,253.311005 269.512085,253.311005 
	C269.512085,251.477783 269.512085,250.087479 269.512085,248.351089 
	C274.728760,250.286942 279.538330,252.071732 284.647308,254.054626 
	C286.975098,258.834717 289.003479,263.416687 290.951660,268.131653 
	C290.863129,268.607574 291.046326,268.806976 291.656921,269.103821 
	C292.657104,271.221222 293.421326,273.097595 294.088013,275.080872 
	C293.990448,275.187714 294.092560,275.529327 294.092560,275.529327 
	C294.092560,275.529327 294.511810,275.573883 294.510498,275.614227 
	C294.509155,275.654572 294.445160,275.605347 294.410156,275.944336 
	C294.728973,276.815948 295.082825,277.348572 295.673706,278.138367 
	C296.542694,279.915314 297.174683,281.435089 297.806641,282.954895 
z"/>
<path fill="#108145" opacity="1.000000" stroke="none" 
	d="
M246.132462,580.344116 
	C246.765411,579.454041 247.494736,579.015808 247.926453,578.376526 
	C248.379379,577.705933 248.604446,576.858887 248.829880,576.060913 
	C250.258896,571.002930 259.947815,575.089844 258.721924,567.115051 
	C263.245026,564.662659 267.890259,564.646301 272.681122,566.278442 
	C277.206879,567.820374 281.654694,568.437378 286.527344,567.012268 
	C291.383820,565.591919 292.568024,566.927124 292.735016,571.297180 
	C296.645355,572.659058 300.242279,574.036743 303.924469,575.126404 
	C305.212372,575.507568 307.236053,575.775757 308.026459,575.078430 
	C313.057861,570.639648 317.848175,565.926636 322.685913,561.270691 
	C323.145386,560.828430 323.347595,560.130493 323.732574,559.596985 
	C324.818878,558.091248 325.938293,556.609375 327.044678,555.118103 
	C328.549103,557.086670 331.519958,559.244751 331.294403,560.989624 
	C330.483368,567.263733 334.076721,566.185852 337.634033,565.582642 
	C342.068146,564.830811 345.060364,565.394653 346.392548,570.790527 
	C347.951447,577.104736 357.786591,578.781921 362.625793,574.303711 
	C365.270233,571.856506 368.943512,570.867493 370.850311,567.132996 
	C372.044800,564.793701 380.701233,566.939636 381.735199,569.734192 
	C382.847198,572.739807 383.392822,575.954956 384.180054,579.056946 
	C386.138702,579.667358 388.463806,580.221375 390.650482,581.114380 
	C393.751801,582.380920 395.356659,581.432678 395.991608,578.221375 
	C396.368011,576.317688 396.523468,574.093628 397.621460,572.658813 
	C401.715118,567.309204 404.640594,567.202698 410.077576,571.569153 
	C411.223389,572.489380 412.529297,573.210266 413.931519,574.420349 
	C412.200531,578.928040 410.299530,583.038269 407.993896,587.063416 
	C403.829315,585.679504 400.359863,585.137329 399.188599,590.319031 
	C398.151703,594.906372 399.565002,597.205872 403.846466,598.358643 
	C398.159302,611.311218 392.524811,623.921997 386.807129,636.494873 
	C386.076355,638.101868 384.912048,639.511719 383.772491,641.187073 
	C383.391479,641.625488 383.239655,641.917419 383.121002,642.203430 
	C383.101013,642.169800 383.166656,642.212585 382.717224,642.163818 
	C379.310211,642.396301 376.354492,642.854248 373.394226,642.885986 
	C371.864410,642.902466 370.326508,642.162354 368.792267,641.764038 
	C369.269989,640.286316 369.593201,638.732422 370.272125,637.353821 
	C370.865997,636.147705 371.859802,635.138550 372.677002,634.042419 
	C370.512115,633.364502 368.532684,633.235291 367.632324,634.158447 
	C364.003784,637.878723 360.596100,637.355286 356.505890,634.882263 
	C350.447357,631.219055 344.643005,630.863159 339.207428,636.717651 
	C335.404541,640.813660 330.777802,641.824768 325.306274,638.839966 
	C321.476410,636.750732 317.014923,635.819214 312.948212,634.409729 
	C308.793823,640.787903 307.599213,641.014038 301.113159,637.950928 
	C299.863556,637.360779 297.903290,637.547913 296.532104,638.066833 
	C290.063873,640.514526 289.443390,640.312622 287.134369,633.958679 
	C286.738647,632.869751 286.384399,631.732239 285.783997,630.756897 
	C282.895905,626.065063 278.565765,625.256531 274.127228,628.101318 
	C272.816589,628.941284 270.842743,628.746521 269.172852,629.025879 
	C266.753937,624.063843 264.349182,619.094849 261.911896,614.141785 
	C259.683624,609.613464 257.425903,605.099548 255.163086,600.588379 
	C254.945053,600.153748 254.385422,599.803406 254.345108,599.379578 
	C253.665176,592.233704 248.517929,587.072632 246.132462,580.344116 
z"/>
<path fill="#1B9147" opacity="1.000000" stroke="none" 
	d="
M383.048157,471.563965 
	C378.387451,483.022461 369.367279,488.951538 358.130188,490.591248 
	C352.688416,491.385284 346.780304,488.993896 341.085052,488.034393 
	C339.136505,487.706085 337.144562,486.884949 335.256287,487.084076 
	C328.432404,487.803772 321.515961,488.340515 314.886566,489.971161 
	C310.303711,491.098450 306.142029,493.926147 301.776428,495.960083 
	C301.039520,496.303375 299.854004,496.939362 299.497437,496.656494 
	C293.308685,491.746765 284.064636,497.028168 278.183350,489.629456 
	C275.139740,485.800598 264.566162,486.836548 260.504883,490.205414 
	C257.857727,492.401215 255.375198,492.244659 252.233414,491.997925 
	C247.223648,491.604523 242.136414,492.272614 237.079605,492.364990 
	C235.174927,492.399811 233.126831,492.469574 231.380707,491.853149 
	C225.605560,489.814362 222.250885,490.670685 218.207001,495.278809 
	C216.162552,497.608582 213.745544,499.611420 211.180573,501.911499 
	C206.874954,493.745300 202.887848,485.428589 198.895798,477.114319 
	C195.566833,470.181030 192.195480,463.267731 188.925522,456.306732 
	C188.103653,454.557190 187.598770,452.658783 186.899109,450.443298 
	C187.828583,449.879761 188.985611,449.979187 189.758896,449.481903 
	C201.026566,442.236145 212.079620,445.748840 223.570648,449.212402 
	C227.707275,450.459259 233.028824,448.876617 237.518555,447.578552 
	C243.479721,445.855133 249.101730,442.989777 254.985489,440.949646 
	C256.900055,440.285767 259.182922,440.728638 261.289185,440.562195 
	C264.192108,440.332825 267.087585,440.008209 269.985168,439.713318 
	C270.141479,439.697449 270.287018,439.519318 270.438293,439.518280 
	C276.387909,439.477539 282.337738,439.460876 288.287201,439.407074 
	C289.406372,439.396942 290.524597,439.167145 291.642761,439.171112 
	C297.111115,439.190460 302.632812,439.753082 308.033478,439.172699 
	C314.319702,438.497162 319.882111,440.837036 325.771881,441.896851 
	C331.457947,442.920044 337.424530,438.806274 343.190643,442.565094 
	C343.610474,442.838745 345.558563,441.224152 346.468079,440.196991 
	C348.469818,437.936371 350.043701,437.415405 351.833832,440.457581 
	C352.378265,441.382812 354.148010,442.577667 354.769745,442.306000 
	C358.806335,440.542206 362.681000,438.407806 366.882751,436.163666 
	C371.112396,444.076782 375.166016,452.175476 378.977112,460.386749 
	C380.588715,463.859070 381.690155,467.568115 383.048157,471.563965 
z"/>
<path fill="#0C7841" opacity="1.000000" stroke="none" 
	d="
M269.150604,629.395020 
	C270.842743,628.746521 272.816589,628.941284 274.127228,628.101318 
	C278.565765,625.256531 282.895905,626.065063 285.783997,630.756897 
	C286.384399,631.732239 286.738647,632.869751 287.134369,633.958679 
	C289.443390,640.312622 290.063873,640.514526 296.532104,638.066833 
	C297.903290,637.547913 299.863556,637.360779 301.113159,637.950928 
	C307.599213,641.014038 308.793823,640.787903 312.948212,634.409729 
	C317.014923,635.819214 321.476410,636.750732 325.306274,638.839966 
	C330.777802,641.824768 335.404541,640.813660 339.207428,636.717651 
	C344.643005,630.863159 350.447357,631.219055 356.505890,634.882263 
	C360.596100,637.355286 364.003784,637.878723 367.632324,634.158447 
	C368.532684,633.235291 370.512115,633.364502 372.677002,634.042419 
	C371.859802,635.138550 370.865997,636.147705 370.272125,637.353821 
	C369.593201,638.732422 369.269989,640.286316 368.792267,641.764038 
	C370.326508,642.162354 371.864410,642.902466 373.394226,642.885986 
	C376.354492,642.854248 379.310211,642.396301 382.735565,642.539490 
	C376.436310,658.515381 369.794128,674.122559 362.873169,689.605164 
	C352.345062,713.157227 341.623657,736.622925 330.984314,760.125305 
	C329.020905,757.355225 326.593811,754.802856 325.173340,751.777771 
	C318.568146,737.710876 312.306396,723.483276 305.794891,709.371643 
	C300.533569,697.969421 295.022919,686.682190 289.763062,675.279297 
	C287.645691,670.689087 285.902130,665.926514 284.062805,660.553467 
	C284.632538,659.207642 285.374115,658.618591 285.577484,657.881104 
	C286.213684,655.574097 287.851074,652.034424 286.930664,651.092468 
	C284.266602,648.365845 282.210602,643.733582 276.949493,645.079895 
	C274.342438,639.974609 271.735413,634.869385 269.150604,629.395020 
z"/>
<path fill="#F9FCFA" opacity="1.000000" stroke="none" 
	d="
M331.156311,760.428162 
	C341.623657,736.622925 352.345062,713.157227 362.873169,689.605164 
	C369.794128,674.122559 376.436310,658.515381 383.184998,642.588257 
	C383.166656,642.212585 383.101013,642.169800 383.393677,642.103027 
	C383.773743,641.695129 383.861176,641.354004 383.948578,641.012939 
	C384.912048,639.511719 386.076355,638.101868 386.807129,636.494873 
	C392.524811,623.921997 398.159302,611.311218 404.081360,598.088501 
	C405.695038,594.026123 407.046753,590.587280 408.398499,587.148499 
	C410.299530,583.038269 412.200531,578.928040 414.304871,574.497864 
	C416.778168,569.304504 419.048187,564.431030 421.584534,559.358154 
	C420.344696,564.847656 419.112518,570.627136 417.270905,576.205383 
	C414.174591,585.583984 409.894958,594.649048 407.664032,604.208008 
	C406.291046,610.090576 407.798615,616.645508 407.999298,622.503235 
	C410.646912,619.114624 413.531616,615.422485 416.481354,611.647217 
	C420.552765,613.982361 420.907440,613.643066 422.189789,607.357971 
	C423.460358,605.452820 424.794037,603.586121 425.986542,601.633362 
	C427.718811,598.796631 429.091644,595.701904 431.088745,593.075317 
	C433.536346,589.856323 436.470001,587.006897 439.564819,583.939453 
	C438.484711,587.956604 437.214722,592.107971 435.545227,596.092041 
	C431.745422,605.159912 427.749542,614.145630 423.509155,623.691162 
	C417.415283,636.954346 411.645599,649.691101 405.626007,662.659668 
	C404.960815,663.925476 404.545563,664.959595 403.940674,666.259766 
	C403.446533,667.329895 403.142059,668.133789 402.587555,669.175354 
	C393.354156,689.534912 384.370850,709.656860 375.387512,729.778809 
	C371.497528,738.199585 367.573792,746.604980 363.726837,755.045349 
	C359.680176,763.923767 355.706909,772.835632 351.409302,781.932373 
	C348.079956,777.617310 351.689178,773.956970 353.314087,770.590149 
	C356.245117,764.517090 356.436035,758.271179 355.655334,752.093384 
	C355.402130,750.089600 351.557098,748.539795 349.354980,746.782349 
	C348.983765,747.132141 348.612579,747.481934 348.241364,747.831787 
	C348.074158,746.599976 347.906921,745.368225 347.723541,744.017334 
	C347.060852,744.171997 346.368500,744.122864 346.174316,744.410278 
	C342.856903,749.320251 339.278778,754.096680 336.459381,759.283691 
	C334.907837,762.138245 333.578430,762.146606 331.156311,760.428162 
z"/>
<path fill="#F9FCFA" opacity="1.000000" stroke="none" 
	d="
M504.444122,784.929077 
	C503.948090,784.620850 503.482605,784.049683 503.618256,783.765137 
	C513.466187,763.112732 523.362000,742.483032 533.544800,721.232605 
	C538.475342,710.166504 543.086914,699.706787 547.763550,689.276245 
	C551.251709,681.496399 554.823975,673.754272 558.584595,665.739685 
	C565.116333,651.377014 571.422180,637.269958 577.728027,623.162903 
	C586.369873,604.017090 595.011658,584.871277 603.714478,565.330933 
	C613.957397,541.502930 624.130432,518.065552 634.340210,494.644165 
	C635.050842,493.013977 636.035095,491.503052 637.000610,489.605225 
	C643.688965,474.561279 650.307678,459.865967 656.831177,445.128479 
	C659.793518,438.436157 662.567139,431.660339 665.526184,424.557983 
	C674.496033,403.105652 683.364502,382.017029 692.237183,360.930145 
	C694.742981,354.974792 697.260742,349.024475 699.990967,342.806335 
	C701.821472,338.946381 703.434082,335.351959 705.281738,331.190186 
	C705.678345,330.083099 705.839905,329.543365 706.001526,329.003662 
	C707.365967,325.929626 708.730408,322.855591 710.339111,319.216217 
	C710.728577,318.102631 710.873901,317.554413 711.019165,317.006165 
	C711.398376,316.241669 711.777588,315.477203 712.409851,314.136047 
	C713.448303,311.374664 714.233765,309.189941 715.019287,307.005219 
	C715.446106,306.112579 715.872925,305.219940 716.546265,303.794983 
	C717.204895,302.176361 717.617004,301.090057 718.029175,300.003784 
	C718.416260,299.246490 718.803406,298.489227 719.456177,297.155151 
	C721.178162,292.719604 722.634583,288.860840 724.090942,285.002106 
	C724.488708,284.251465 724.886475,283.500854 725.316528,282.429199 
	C729.571411,271.815948 733.918579,261.572601 737.981384,251.217697 
	C742.019226,240.926544 745.679443,230.487808 749.669617,220.177429 
	C755.671448,204.669128 761.816345,189.216248 767.917664,173.369202 
	C776.919922,148.324188 785.988159,123.679657 794.857422,98.963745 
	C799.814026,85.151321 804.440552,71.220444 809.533813,57.185059 
	C808.226562,64.050369 806.930237,71.170303 804.899597,78.074280 
	C801.784790,88.664040 798.340454,99.166336 794.713257,109.593483 
	C790.450439,121.847748 785.818176,133.973145 781.390991,146.170715 
	C776.534485,159.551315 771.818604,172.983673 766.871155,186.330338 
	C763.366638,195.784241 759.575073,205.131668 755.918945,214.529480 
	C751.626099,225.563812 747.359009,236.608215 743.046936,247.635040 
	C739.722534,256.136322 736.382385,264.631805 732.984375,273.103851 
	C727.503845,286.768066 722.020935,300.431732 716.442688,314.056213 
	C712.012695,324.876068 707.421997,335.630035 702.932739,346.425781 
	C696.598755,361.657806 690.365356,376.932098 683.951721,392.130402 
	C678.653259,404.685913 673.226807,417.188721 667.730347,429.659027 
	C658.870056,449.760956 649.920105,469.823456 640.980591,489.890381 
	C632.710083,508.455505 624.342773,526.977783 616.135986,545.571045 
	C611.303955,556.518372 606.903687,567.659546 601.934265,578.542297 
	C597.621216,587.987793 592.689087,597.148560 588.204773,606.518555 
	C585.105225,612.995117 582.299622,619.612305 579.367126,626.168579 
	C574.817078,636.341431 570.259827,646.511108 565.725952,656.691162 
	C560.798706,667.754578 556.006714,678.879700 550.953552,689.885132 
	C543.835144,705.388489 536.419373,720.755737 529.345032,736.278870 
	C524.661072,746.556824 520.700378,757.175842 515.746887,767.315369 
	C512.742310,773.465637 508.462311,778.992859 504.444122,784.929077 
z"/>
<path fill="#63C541" opacity="1.000000" stroke="none" 
	d="
M606.613647,110.043457 
	C609.170349,115.193031 608.401428,121.534279 613.227112,126.076973 
	C614.787354,127.545715 614.568420,130.884521 615.216980,133.353790 
	C615.413940,134.103745 615.714294,135.391418 616.096497,135.441208 
	C620.333435,135.993240 620.265442,139.098404 620.040222,142.096405 
	C619.843201,144.719696 619.233093,147.311951 618.813171,149.871277 
	C620.361389,153.836365 622.111694,158.319077 623.399780,163.210754 
	C621.588440,163.424332 620.239319,163.228958 618.890198,163.033569 
	C618.890198,163.033569 619.011902,163.017578 618.935791,162.727631 
	C617.924072,162.349319 616.988464,162.260971 616.052917,162.172638 
	C606.309143,158.591064 596.557251,155.031265 586.823975,151.421310 
	C578.457092,148.318100 570.110291,145.160751 561.756897,142.021255 
	C557.104126,140.272583 554.886902,136.813187 557.062378,134.232864 
	C559.029480,131.899704 561.312927,129.436478 563.994934,128.171448 
	C575.663147,122.667931 587.510254,117.540710 599.336975,112.379059 
	C601.544861,111.415451 603.957581,110.921074 606.613647,110.043457 
z"/>
<path fill="#F9FCFA" opacity="1.000000" stroke="none" 
	d="
M298.003448,283.198730 
	C297.174683,281.435089 296.542694,279.915314 295.634033,277.822571 
	C295.053284,276.701508 294.749207,276.153442 294.445160,275.605347 
	C294.445160,275.605347 294.509155,275.654572 294.495972,275.427856 
	C294.482758,275.201172 294.185547,274.973999 294.185547,274.973999 
	C293.421326,273.097595 292.657104,271.221222 291.620941,268.860229 
	C291.348999,268.375610 291.031860,267.998657 291.031860,267.998657 
	C289.003479,263.416687 286.975098,258.834717 284.618134,253.684082 
	C279.931000,243.560272 275.572449,234.005157 271.213898,224.450058 
	C268.781738,218.845612 266.389313,213.223495 263.907623,207.641083 
	C260.643921,200.299637 257.309937,192.989426 254.032257,185.286667 
	C256.700562,189.590942 259.575592,194.160355 261.936066,198.981689 
	C266.707306,208.726913 271.287567,218.568665 275.781494,228.445724 
	C280.292175,238.359665 284.545197,248.390533 289.015320,258.323273 
	C293.774567,268.898376 298.819031,279.347961 303.420013,289.990265 
	C305.987946,295.930084 307.907532,302.150177 310.350647,308.533081 
	C309.282379,306.500488 307.850647,304.241699 306.709167,301.844666 
	C303.803680,295.743561 301.027924,289.580688 298.003448,283.198730 
z"/>
<path fill="#43B047" opacity="1.000000" stroke="none" 
	d="
M92.150215,236.689270 
	C91.162102,237.262085 90.323212,237.526016 89.181992,237.926819 
	C87.592773,235.644028 86.305893,233.224350 84.992622,230.438995 
	C84.756775,228.452240 84.547318,226.831161 84.337852,225.210083 
	C84.747826,225.364212 85.157799,225.518341 85.567764,225.672485 
	C86.765015,223.317139 87.960686,220.960999 89.160622,218.607025 
	C89.455742,218.028076 89.888458,216.921722 90.049431,216.958969 
	C94.606796,218.013382 99.137421,219.183350 103.672409,220.334442 
	C102.826057,222.004578 102.195068,223.835571 101.091240,225.313400 
	C98.273087,229.086380 95.244095,232.701889 92.150215,236.689270 
z"/>
<path fill="#2DA44C" opacity="1.000000" stroke="none" 
	d="
M359.158997,417.528931 
	C358.037628,416.737823 356.468719,415.757843 355.720215,414.343628 
	C353.937683,410.975677 353.135864,406.936493 350.847900,404.025024 
	C347.673187,399.985107 342.817047,397.163818 344.871735,390.695038 
	C345.193787,389.681183 343.296326,387.934875 342.376953,386.559418 
	C339.708038,382.566345 337.014587,378.589661 333.799988,373.818787 
	C333.214325,373.927612 331.173309,374.306824 328.398010,374.822479 
	C328.414185,370.393127 328.584778,366.704285 333.713989,365.037048 
	C334.658875,365.107666 335.244781,365.250732 335.970032,366.013885 
	C336.452667,366.747772 336.795959,366.861572 337.139282,366.975372 
	C337.139282,366.975372 337.037109,366.976196 336.867981,367.292297 
	C337.849304,369.750916 338.999786,371.893433 340.150269,374.035980 
	C340.150269,374.035980 340.007050,374.022705 339.902527,374.312073 
	C340.250031,375.075684 340.702026,375.549896 341.154053,376.024139 
	C341.154053,376.024139 341.014160,376.012695 340.886749,376.328247 
	C341.795898,378.774597 342.832489,380.905457 343.869080,383.036285 
	C347.920563,391.706848 352.016876,400.356903 355.996216,409.060455 
	C357.192993,411.677979 358.064117,414.444397 359.158997,417.528931 
z"/>
<path fill="#F9FCFA" opacity="1.000000" stroke="none" 
	d="
M352.050232,796.378784 
	C363.999146,795.909546 376.159607,795.786194 388.320190,795.772583 
	C415.486206,795.742188 442.655884,795.510498 469.816650,795.890808 
	C481.149170,796.049438 491.722870,794.846741 500.907501,787.725586 
	C496.146851,794.169128 489.793945,797.115173 481.998596,797.017212 
	C478.007385,796.967041 474.013855,796.945496 470.023407,797.020020 
	C453.801270,797.322754 437.578552,797.991333 421.358704,797.919434 
	C398.325165,797.817383 375.294006,797.181946 352.050232,796.378784 
z"/>
<path fill="#2DA44C" opacity="1.000000" stroke="none" 
	d="
M321.303528,340.167786 
	C319.981506,336.120056 318.949432,332.266724 318.315338,328.336151 
	C319.354462,329.097931 319.995605,329.936890 320.636749,330.775879 
	C324.546448,339.388031 328.499969,347.980774 332.329224,356.628571 
	C333.103546,358.377258 333.407776,360.334137 333.872375,362.588623 
	C332.664673,363.040741 331.513611,363.104889 330.361969,363.156555 
	C328.081757,363.258881 323.870514,363.701385 323.816254,363.399567 
	C323.199036,359.965424 322.101044,355.959290 323.314819,353.002228 
	C325.350189,348.043518 325.203522,344.175262 321.303528,340.167786 
z"/>
<path fill="#39A643" opacity="1.000000" stroke="none" 
	d="
M116.245895,299.314972 
	C118.452850,296.451111 120.944939,295.478455 123.985359,297.660217 
	C126.945435,299.784363 127.735146,302.612091 126.418930,305.902985 
	C125.631653,307.871399 124.445175,309.680145 123.177650,311.797607 
	C120.707428,307.914856 118.497688,303.795135 116.245895,299.314972 
z"/>
<path fill="#2DA44C" opacity="1.000000" stroke="none" 
	d="
M135.994171,340.400360 
	C138.496262,339.027985 140.975784,337.812775 143.594147,337.129791 
	C145.315430,336.680817 147.236984,336.999695 149.068848,336.974701 
	C148.470551,338.408386 148.038116,339.942719 147.241440,341.256042 
	C145.223267,344.582916 140.878052,346.586853 141.362549,351.682190 
	C139.470322,348.222351 137.750443,344.502930 135.994171,340.400360 
z"/>
<path fill="#108145" opacity="1.000000" stroke="none" 
	d="
M276.975433,645.465637 
	C282.210602,643.733582 284.266602,648.365845 286.930664,651.092468 
	C287.851074,652.034424 286.213684,655.574097 285.577484,657.881104 
	C285.374115,658.618591 284.632538,659.207642 283.966339,660.213989 
	C281.530762,655.659363 279.266083,650.755371 276.975433,645.465637 
z"/>
<path fill="#43B047" opacity="1.000000" stroke="none" 
	d="
M449.584106,569.156616 
	C451.628265,568.848694 453.384674,568.738037 456.496735,568.542053 
	C453.491486,572.611023 451.151672,575.968689 448.532959,579.092529 
	C448.192932,579.498108 446.414368,578.697754 445.122375,578.169922 
	C446.393860,575.040527 447.845093,572.197205 449.584106,569.156616 
z"/>
<path fill="#F9FCFA" opacity="1.000000" stroke="none" 
	d="
M320.393127,330.489868 
	C319.995605,329.936890 319.354462,329.097931 318.496826,328.085876 
	C316.287384,323.319855 314.294434,318.726959 312.540588,313.891174 
	C315.236328,319.166809 317.692902,324.685333 320.393127,330.489868 
z"/>
<path fill="#F9FCFA" opacity="1.000000" stroke="none" 
	d="
M619.030762,163.363113 
	C620.239319,163.228958 621.588440,163.424332 623.356689,163.656769 
	C625.492249,164.874771 627.208618,166.055725 628.831421,167.572266 
	C627.698975,169.980545 626.660156,172.053223 625.394165,174.334412 
	C626.877991,168.876328 624.421509,165.512573 619.030762,163.363113 
z"/>
<path fill="#F9FCFA" opacity="1.000000" stroke="none" 
	d="
M343.903931,382.639404 
	C342.832489,380.905457 341.795898,378.774597 340.892609,376.258301 
	C341.996857,377.996063 342.967804,380.119293 343.903931,382.639404 
z"/>
<path fill="#F9FCFA" opacity="1.000000" stroke="none" 
	d="
M340.059937,373.655273 
	C338.999786,371.893433 337.849304,369.750916 336.868958,367.241211 
	C338.015900,369.007568 338.992767,371.141052 340.059937,373.655273 
z"/>
<path fill="#F9FCFA" opacity="1.000000" stroke="none" 
	d="
M501.450195,788.048950 
	C501.933990,786.833069 502.761108,785.575256 503.837158,784.714478 
	C503.321899,786.076721 502.557709,787.041870 501.450195,788.048950 
z"/>
<path fill="#F9FCFA" opacity="1.000000" stroke="none" 
	d="
M616.199097,162.477081 
	C616.988464,162.260971 617.924072,162.349319 618.943481,162.788483 
	C618.133362,163.020050 617.239258,162.900787 616.199097,162.477081 
z"/>
<path fill="#F9FCFA" opacity="1.000000" stroke="none" 
	d="
M440.657043,581.998718 
	C440.852875,582.600342 440.745636,583.329102 440.241547,584.026611 
	C440.014465,583.372192 440.184235,582.749023 440.657043,581.998718 
z"/>
<path fill="#F9FCFA" opacity="1.000000" stroke="none" 
	d="
M341.065552,375.700073 
	C340.702026,375.549896 340.250031,375.075684 339.908844,374.240448 
	C340.338806,374.378326 340.657928,374.877197 341.065552,375.700073 
z"/>
<path fill="#68C840" opacity="1.000000" stroke="none" 
	d="
M646.702148,93.176743 
	C646.729492,93.394394 646.474304,93.619423 645.991760,93.971207 
	C645.982849,93.793343 646.201294,93.488724 646.702148,93.176743 
z"/>
<path fill="#F9FCFA" opacity="1.000000" stroke="none" 
	d="
M441.655823,581.125671 
	C441.750488,581.477539 441.590637,581.826721 441.149231,582.069275 
	C441.045593,581.682739 441.223450,581.402893 441.655823,581.125671 
z"/>
<path fill="#F9FCFA" opacity="1.000000" stroke="none" 
	d="
M311.651489,312.514832 
	C311.608490,312.483521 311.530151,312.649933 311.579071,312.639526 
	C311.627991,312.629120 311.694458,312.546112 311.651489,312.514832 
z"/>
<path fill="#F9FCFA" opacity="1.000000" stroke="none" 
	d="
M337.036774,366.727905 
	C336.795959,366.861572 336.452667,366.747772 336.074280,366.304626 
	C336.337585,366.143677 336.635925,366.312073 337.036774,366.727905 
z"/>
<path fill="#43B047" opacity="1.000000" stroke="none" 
	d="
M271.045258,224.789795 
	C275.572449,234.005157 279.931000,243.560272 284.318726,253.485947 
	C279.538330,252.071732 274.728760,250.286942 269.512085,248.351089 
	C269.512085,250.087479 269.512085,251.477783 269.512085,253.311005 
	C264.712585,253.311005 260.243896,253.311005 255.280823,253.311005 
	C258.458282,248.376755 259.621979,242.425507 266.549866,240.947449 
	C268.431549,240.545959 269.752808,237.517715 271.331299,235.695053 
	C270.930267,235.207916 270.529236,234.720779 270.128174,234.233627 
	C268.271301,235.061813 266.459900,236.026581 264.540161,236.666138 
	C263.418182,237.039948 262.123199,236.894348 260.906036,236.982407 
	C261.176514,235.635468 261.180725,234.150238 261.789032,232.978745 
	C262.456482,231.693436 263.680939,230.697357 264.835388,229.287933 
	C266.964264,227.710236 268.920441,226.419876 271.045258,224.789795 
z"/>
<path fill="#68C840" opacity="1.000000" stroke="none" 
	d="
M723.698242,285.005981 
	C722.634583,288.860840 721.178162,292.719604 719.484436,296.834167 
	C715.245667,290.362732 716.594177,286.348816 723.698242,285.005981 
z"/>
<path fill="#68C840" opacity="1.000000" stroke="none" 
	d="
M714.672363,307.079681 
	C714.233765,309.189941 713.448303,311.374664 712.431885,313.813965 
	C712.909058,311.763763 713.617249,309.458954 714.672363,307.079681 
z"/>
<path fill="#68C840" opacity="1.000000" stroke="none" 
	d="
M717.675049,300.141113 
	C717.617004,301.090057 717.204895,302.176361 716.524536,303.495117 
	C716.611084,302.577850 716.966003,301.428162 717.675049,300.141113 
z"/>
<path fill="#68C840" opacity="1.000000" stroke="none" 
	d="
M710.757385,317.066162 
	C710.873901,317.554413 710.728577,318.102631 710.379456,318.855774 
	C710.282288,318.415802 710.388977,317.770996 710.757385,317.066162 
z"/>
<path fill="#68C840" opacity="1.000000" stroke="none" 
	d="
M705.742920,329.062805 
	C705.839905,329.543365 705.678345,330.083099 705.317871,330.830109 
	C705.240784,330.398926 705.362549,329.760468 705.742920,329.062805 
z"/>
<path fill="#2DA44C" opacity="1.000000" stroke="none" 
	d="
M577.242981,623.121704 
	C571.422180,637.269958 565.116333,651.377014 558.189819,665.792786 
	C555.488403,666.791199 553.407593,667.480896 550.573853,668.420105 
	C555.750244,673.212341 552.127563,675.805176 549.083130,679.684753 
	C546.930664,673.155701 542.864075,672.380432 537.422241,673.862610 
	C532.370972,675.238403 527.087769,675.744446 521.928650,676.746826 
	C514.109070,678.266235 506.226807,679.570923 498.531799,681.581482 
	C494.186096,682.716980 490.250000,684.398438 485.746918,682.057129 
	C483.954224,681.125061 481.575623,681.096619 479.456268,681.057068 
	C472.610443,680.929260 465.756439,681.127747 458.915741,680.897827 
	C456.527100,680.817566 453.487762,678.644531 451.920532,679.523071 
	C446.836517,682.373230 442.056366,680.372131 437.029724,680.344299 
	C424.204712,680.273254 413.237457,675.715576 402.837616,668.937744 
	C403.142059,668.133789 403.446533,667.329895 404.271942,666.118286 
	C405.153900,664.616394 405.514923,663.522156 405.875916,662.427856 
	C411.645599,649.691101 417.415283,636.954346 423.516296,624.078491 
	C424.615784,625.887390 425.383942,627.835327 426.581299,630.871704 
	C425.859161,630.253052 426.154785,630.685852 426.345428,630.643799 
	C434.923370,628.747681 441.933044,633.055847 449.454590,635.949890 
	C453.052948,637.334412 457.510162,636.512695 461.579956,636.639343 
	C466.367493,636.788330 471.156830,636.878235 475.945190,637.000977 
	C482.848450,637.178101 489.752411,637.506226 496.654205,637.464294 
	C499.082581,637.449524 501.500885,636.510803 503.932770,636.040466 
	C505.200287,635.795349 506.808258,635.064941 507.711853,635.559570 
	C512.484985,638.172485 516.719543,635.182068 521.189758,634.697021 
	C526.870911,634.080627 532.582336,633.731567 538.285400,633.334717 
	C540.064453,633.210938 541.923340,633.608521 543.633667,633.243164 
	C548.421448,632.220398 553.161804,630.964783 557.893799,629.699768 
	C558.820435,629.452026 559.894470,628.952026 560.443665,628.223816 
	C564.685974,622.598694 570.963806,623.641541 577.242981,623.121704 
M421.653076,633.743042 
	C421.848694,633.416687 422.044281,633.090332 422.239899,632.763977 
	C421.964966,632.709351 421.690033,632.654724 421.415161,632.600037 
	C421.358887,632.961060 421.302582,633.322021 421.653076,633.743042 
z"/>
<path fill="#24A04F" opacity="1.000000" stroke="none" 
	d="
M402.587555,669.175354 
	C413.237457,675.715576 424.204712,680.273254 437.029724,680.344299 
	C442.056366,680.372131 446.836517,682.373230 451.920532,679.523071 
	C453.487762,678.644531 456.527100,680.817566 458.915741,680.897827 
	C465.756439,681.127747 472.610443,680.929260 479.456268,681.057068 
	C481.575623,681.096619 483.954224,681.125061 485.746918,682.057129 
	C490.250000,684.398438 494.186096,682.716980 498.531799,681.581482 
	C506.226807,679.570923 514.109070,678.266235 521.928650,676.746826 
	C527.087769,675.744446 532.370972,675.238403 537.422241,673.862610 
	C542.864075,672.380432 546.930664,673.155701 549.083130,679.684753 
	C552.127563,675.805176 555.750244,673.212341 550.573853,668.420105 
	C553.407593,667.480896 555.488403,666.791199 557.963989,666.048401 
	C554.823975,673.754272 551.251709,681.496399 547.763550,689.276245 
	C543.086914,699.706787 538.475342,710.166504 533.603638,720.872070 
	C529.564026,719.306213 525.967529,719.604675 521.926514,721.051208 
	C514.821899,723.594482 507.555237,726.148438 500.141754,727.240173 
	C492.110962,728.422852 483.816498,727.689941 475.673431,728.288025 
	C471.637451,728.584473 467.378113,729.351135 463.771576,731.065674 
	C459.567413,733.064392 455.832886,732.836792 451.807739,731.355225 
	C450.719940,730.954773 449.561188,730.107361 448.546448,730.251221 
	C441.658142,731.227966 434.819458,733.147827 427.926117,733.334106 
	C420.646790,733.530884 413.336548,731.936279 406.017334,731.506165 
	C400.091339,731.157898 394.125549,731.534119 388.189850,731.288208 
	C384.187439,731.122437 380.206635,730.433533 375.801880,729.878723 
	C384.370850,709.656860 393.354156,689.534912 402.587555,669.175354 
z"/>
<path fill="#33A244" opacity="1.000000" stroke="none" 
	d="
M294.410156,275.944336 
	C294.749207,276.153442 295.053284,276.701508 295.396973,277.565430 
	C295.082825,277.348572 294.728973,276.815948 294.410156,275.944336 
z"/>
<path fill="#33A244" opacity="1.000000" stroke="none" 
	d="
M290.951660,268.131653 
	C291.031860,267.998657 291.348999,268.375610 291.384979,268.619202 
	C291.046326,268.806976 290.863129,268.607574 290.951660,268.131653 
z"/>
<path fill="#33A244" opacity="1.000000" stroke="none" 
	d="
M294.088013,275.080872 
	C294.185547,274.973999 294.482758,275.201172 294.497284,275.387512 
	C294.511810,275.573883 294.092560,275.529327 294.092560,275.529327 
	C294.092560,275.529327 293.990448,275.187714 294.088013,275.080872 
z"/>
<path fill="#138947" opacity="1.000000" stroke="none" 
	d="
M407.993896,587.063416 
	C407.046753,590.587280 405.695038,594.026123 404.108398,597.735046 
	C399.565002,597.205872 398.151703,594.906372 399.188599,590.319031 
	C400.359863,585.137329 403.829315,585.679504 407.993896,587.063416 
z"/>
<path fill="#0C7841" opacity="1.000000" stroke="none" 
	d="
M383.772522,641.187073 
	C383.861176,641.354004 383.773743,641.695129 383.413666,642.136597 
	C383.239655,641.917419 383.391479,641.625488 383.772522,641.187073 
z"/>
<path fill="#24A04F" opacity="1.000000" stroke="none" 
	d="
M405.625977,662.659668 
	C405.514923,663.522156 405.153900,664.616394 404.461609,665.852173 
	C404.545563,664.959595 404.960815,663.925476 405.625977,662.659668 
z"/>
<path fill="#37A94A" opacity="1.000000" stroke="none" 
	d="
M421.449707,633.713013 
	C421.302582,633.322021 421.358887,632.961060 421.415161,632.600037 
	C421.690033,632.654724 421.964966,632.709351 422.239868,632.763977 
	C422.044281,633.090332 421.848694,633.416687 421.449707,633.713013 
z"/>
</svg>
